<svg width="80" height="80" viewBox="0 0 80 80" fill="none" xmlns="http://www.w3.org/2000/svg">
<path d="M57.7469 80H22.2531C9.98281 80 0 70.0173 0 57.7469V22.2531C0 9.98266 9.98281 0 22.2531 0H57.7469C70.0172 0 80 9.98266 80 22.2531V57.7469C80 70.0173 70.0172 80 57.7469 80Z" fill="#5181B8"/>
<path d="M56.7251 0H38V80H56.7251C69.5588 80 80 70.0173 80 57.7469V22.2531C80 9.98266 69.5588 0 56.7251 0Z" fill="#3B77B2"/>
<path d="M40.0861 56C37.5449 56 35.4613 55.8722 31.7765 54.218L31.731 54.1975L31.684 54.1799C30.3453 53.6752 18.3966 48.6567 11.1827 28.1014L11.1777 28.0875C10.9664 27.5051 10.8051 26.2638 11.5413 25.3053C12.1969 24.4514 13.42 24 15.0781 24H21.6223C21.9597 24 22.2583 24.2001 22.365 24.4978C22.3785 24.5358 23.7758 28.4189 25.9003 32.4313C27.1825 34.8529 28.4483 36.8013 29.6625 38.2224L31.2428 40.0716C31.643 40.5399 32.4538 40.2779 32.4538 39.6798C32.4538 36.6239 32.4536 30.7671 32.4539 30.7542L32.4618 30.7118L32.4685 30.6534C32.5076 30.284 32.623 28.3927 31.1461 26.8029C30.9461 26.5877 30.8234 26.3159 30.8052 26.0318C30.7847 25.7099 30.8588 25.33 31.1152 24.986C31.6026 24.3318 32.5859 24.0001 34.0377 24.0001H42.8002C42.8635 24.0001 42.9267 24.0023 42.9892 24.0118C43.9796 24.1602 45.0329 25.1402 45.0329 26.9629V37.8045C45.0329 38.3766 45.7853 38.6541 46.2069 38.2374L47.7387 36.7232C49.1623 35.3159 51.9047 32.1822 54.2789 27.0047L54.3146 26.9271L54.3403 26.8463C54.4329 26.555 55.3411 24.0003 58.668 24.0003H64.9491C64.9699 24.0003 64.9907 24.001 65.0114 24.0026C65.4898 24.0386 66.182 24.3154 66.5608 24.9776C67.3994 26.4433 66.0688 28.6449 65.6315 29.3684C65.6213 29.385 65.6091 29.4033 65.5961 29.4212L60.2608 36.7013C59.8442 37.2699 59.4902 37.7298 59.147 38.1491C57.7077 39.9071 58.2537 41.2374 58.7074 41.874C58.7848 41.9825 58.8817 42.0959 59.0127 42.2317L66.6214 50.1168L66.6387 50.1335C66.759 50.2505 67.3881 50.873 67.9598 51.6466C68.3141 52.1262 69.3922 53.5854 68.8505 54.7794C68.4838 55.5878 67.5415 55.9977 66.0497 55.9977H61.2074C59.0271 55.9977 56.9181 55.2749 55.2686 53.9625L55.2153 53.92C55.2084 53.9144 48.7242 49.1525 46.0832 47.213C45.6378 46.8858 44.9837 47.1815 44.9839 47.7093L44.984 53.0436C44.9887 53.3114 44.9422 54.245 44.1493 55.019C43.6918 55.4654 42.8171 55.9977 41.2481 55.9977C41.0419 55.9975 40.2706 56 40.0861 56Z" fill="white"/>
<path d="M67.8941 51.6463C67.2864 50.8727 66.6174 50.2502 66.4894 50.1332L66.4711 50.1165L58.3816 42.2314C58.2422 42.0955 58.1392 41.982 58.057 41.8737C57.5746 41.2372 56.9938 39.9068 58.5244 38.1489C58.8892 37.7295 59.2656 37.2694 59.7085 36.701L65.381 29.4209C65.3948 29.4032 65.4077 29.3848 65.4187 29.3681C65.8836 28.6446 67.2982 26.443 66.4067 24.9773C66.0039 24.3152 65.268 24.0383 64.7593 24.0023C64.7372 24.0007 64.7151 24 64.6931 24H58.015C54.4779 24 53.5123 26.5547 53.4138 26.846L53.3865 26.9268L53.3485 27.0044C50.8245 32.1819 47.9086 35.3156 46.395 36.7229L44.7663 38.2372C44.3182 38.6539 43.5181 38.3764 43.5181 37.8044V26.9628C43.5181 25.14 42.398 24.16 41.3452 24.0116C41.2788 24.0023 41.2115 24 41.1443 24H38V55.9996C38.0859 55.9999 38.1721 56 38.259 56C38.4552 56 39.2752 55.9975 39.4942 55.9975C41.1624 55.9975 42.0924 55.4652 42.5788 55.0188C43.4218 54.2448 43.4713 53.3111 43.4663 53.0435L43.4661 47.7092C43.4661 47.1814 44.1614 46.8857 44.6349 47.2128C47.4427 49.1523 54.3366 53.9143 54.3441 53.9198L54.4009 53.9623C56.1544 55.2748 58.3969 55.9975 60.7149 55.9975H65.8632C67.4492 55.9975 68.4512 55.5877 68.8411 54.7793C69.417 53.5851 68.2706 52.1259 67.8941 51.6463Z" fill="#D7F2F9"/>
</svg>
