<svg width="50" height="50" viewBox="0 0 50 50" fill="none" xmlns="http://www.w3.org/2000/svg">
<g id="phone_rudjosz71r98 1">
<g id="Group">
<g id="Group_2">
<path id="Vector" d="M37.436 0H12.5639C11.2882 0 10.2571 1.03288 10.2571 2.30681V47.6923C10.2571 48.967 11.2891 49.9999 12.5639 49.9999H37.4359C38.7099 49.9999 39.7428 48.967 39.7428 47.6923V2.30681C39.7436 1.03205 38.7099 0 37.436 0ZM22.4513 2.72244H27.5469C27.8132 2.72244 28.028 2.93729 28.028 3.20354C28.028 3.4698 27.8132 3.68464 27.5469 3.68464H22.4513C22.1867 3.68464 21.9702 3.4698 21.9702 3.20354C21.9702 2.93729 22.1867 2.72244 22.4513 2.72244ZM28.0769 45.8963H21.9221C21.4175 45.8963 21.008 45.4876 21.008 44.9829C21.008 44.4783 21.4175 44.0696 21.9221 44.0696H28.0768C28.5814 44.0696 28.9892 44.4783 28.9892 44.9829C28.9893 45.4877 28.5824 45.8963 28.0769 45.8963ZM36.8597 40.5125H13.1402V7.8198H36.8597V40.5125Z" fill="#1C63B8"/>
</g>
</g>
</g>
</svg>
