<svg width="60" height="60" viewBox="0 0 60 60" fill="none" xmlns="http://www.w3.org/2000/svg">
<rect width="60" height="60" fill="#F5F5F5"/>
<g id="Desktop - 1" clip-path="url(#clip0_0_1)">
<rect width="1440" height="5645" transform="translate(-210 -1555)" fill="white"/>
<g id="Frame 6">
<rect width="1438" height="953" transform="translate(-209 -206)" fill="#F7F7F7"/>
<rect id="Rectangle 14" x="-122" y="-81" width="301" height="370" fill="white"/>
<circle id="Ellipse 3" cx="30" cy="30" r="60" fill="#F7F7F7"/>
<g id="Group">
<g id="Group_2">
<path id="Vector" d="M6.36819 46.1023C5.91266 46.6411 5.37094 47.078 4.7923 47.3692V51.0824V57.2275C4.7923 58.6982 5.80185 59.8777 7.03302 59.8777H12.0808C13.3243 59.8777 14.3215 58.6836 14.3215 57.2275V51.0824V43.2482V37.1032C14.3215 36.9722 14.3092 36.8411 14.2969 36.7246L6.36819 46.1023Z" fill="#1C63B8"/>
<path id="Vector_2" d="M58.6435 7.67395C58.5942 7.67395 58.545 7.67395 58.4834 7.67395C55.0854 7.86325 51.6751 8.05255 48.2771 8.24186C47.7477 8.27098 47.2306 8.3001 46.9351 9.05731C46.6396 9.79996 46.972 10.2222 47.3414 10.6591C48.3879 11.8968 49.4221 13.1491 50.4809 14.3578L49.3236 15.7266L39.9051 26.8662L39.068 27.8564L37.0119 30.2882L28.9108 39.8698L28.443 39.3165L18.7537 27.8564L16.6977 25.4246L16.1437 24.7694C15.7004 24.2451 15.1341 23.9976 14.5555 23.9976C13.9768 23.9976 13.4105 24.2597 12.9672 24.7694L12.4132 25.4246L0.655595 39.331C-0.218532 40.3649 -0.218532 42.0541 0.655595 43.088L1.20962 43.7432C1.65284 44.2674 2.21918 44.515 2.79782 44.515C3.37647 44.515 3.94281 44.2529 4.38603 43.7432L14.5555 31.7153L15.0233 32.2686L24.7126 43.7287L26.7686 46.1605L27.3226 46.8157C27.7659 47.34 28.3322 47.5875 28.9108 47.5875C29.4895 47.5875 30.0558 47.3254 30.499 46.8157L31.0531 46.1605L40.7423 34.7004L42.7984 32.2686L43.6356 31.2784L53.054 20.1387L54.199 18.7845L57.2769 22.3958C57.5601 22.7307 57.8432 23.0948 58.2495 23.0948C58.3972 23.0948 58.5696 23.0365 58.7543 22.92C59.3699 22.5269 59.5053 21.8861 59.5299 21.1726C59.6777 17.241 59.8377 13.3239 59.9978 9.39223C60.0347 8.21273 59.6161 7.67395 58.6435 7.67395Z" fill="#1C63B8"/>
<path id="Vector_3" d="M23.3952 24.6384C24.3678 25.1917 25.402 25.4829 26.4485 25.6722C27.2734 25.8324 27.298 25.8761 27.3103 26.8809C27.3103 27.3468 27.3226 27.7982 27.3226 28.2642C27.3226 28.8467 27.5689 29.1816 28.0613 29.1962C28.64 29.2107 29.2063 29.2107 29.785 29.1962C30.2528 29.1816 30.499 28.8758 30.499 28.3225C30.499 27.6963 30.5237 27.0702 30.499 26.4294C30.4744 25.7887 30.7083 25.4684 31.2254 25.2936C32.4197 24.9005 33.4415 24.1433 34.2295 23.022C36.4086 19.8913 35.5714 15.3043 32.4812 13.2803C31.5086 12.6395 30.4867 12.159 29.4649 11.6639C28.8739 11.3727 28.3076 11.0378 27.8151 10.5572C26.8302 9.62527 27.0148 8.12542 28.1721 7.52839C28.4922 7.36821 28.837 7.30996 29.194 7.28084C30.5237 7.19347 31.7918 7.4847 33.0106 8.1691C33.6139 8.51858 33.8109 8.40209 34.0202 7.65944C34.2295 6.87311 34.4142 6.08678 34.6111 5.28589C34.7466 4.76167 34.5865 4.39763 34.1556 4.1792C33.38 3.77147 32.5797 3.48024 31.7548 3.33462C30.6591 3.13076 30.6591 3.13076 30.6591 1.83477C30.6468 2.77742e-07 30.6468 0 29.1078 0C28.8862 0 28.6523 0 28.4307 0C27.7043 0.0291234 27.5812 0.17474 27.5689 1.03388C27.5566 1.42704 27.5689 1.80565 27.5689 2.19881C27.5689 3.34919 27.5566 3.33462 26.6332 3.72779C24.3925 4.68886 23.0012 6.49451 22.8535 9.39228C22.7181 11.9551 23.8508 13.688 25.6236 14.9403C26.7194 15.712 27.9382 16.178 29.0955 16.7751C29.551 17.008 29.982 17.2847 30.3636 17.6488C31.484 18.7409 31.2747 20.5611 29.945 21.2455C29.2309 21.6095 28.4922 21.6969 27.7166 21.595C26.5347 21.4202 25.3897 21.0562 24.3186 20.3864C23.6907 19.9932 23.506 20.0951 23.2967 20.9106C23.1121 21.6095 22.952 22.3085 22.792 23.0075C22.558 23.9685 22.6319 24.2015 23.3952 24.6384Z" fill="#1C63B8"/>
<path id="Vector_4" d="M24.7495 48.5486L22.6935 46.1168L18.2613 40.8746C18.0643 41.2678 17.9535 41.7338 17.9535 42.2143V43.2628V56.1935V57.242C17.9535 58.7127 18.963 59.8922 20.1942 59.8922H25.242C26.4855 59.8922 27.4827 58.6981 27.4827 57.242V56.1935V50.7329C26.6701 50.4562 25.9191 49.932 25.3035 49.2039L24.7495 48.5486Z" fill="#1C63B8"/>
<path id="Vector_5" d="M33.0599 48.5487L32.5058 49.204C32.0996 49.6845 31.6317 50.0777 31.1146 50.3689V56.1936V57.242C31.1146 58.7127 32.1242 59.8922 33.3553 59.8922H38.4031C39.6466 59.8922 40.6438 58.6982 40.6438 57.242V56.1936V43.2628V42.2144C40.6438 41.4863 40.3976 40.831 39.9913 40.3505L33.0599 48.5487Z" fill="#1C63B8"/>
<path id="Vector_6" d="M45.6424 33.6521L44.8052 34.6423L44.2635 35.283V37.1032V38.3555V43.2482V44.5005V51.0679V57.2129C44.2635 58.6836 45.273 59.8631 46.5042 59.8631H51.552C52.7955 59.8631 53.7927 58.6691 53.7927 57.2129V51.0679V44.5151V43.2628V38.3701V37.1178V30.5359V24.3909C53.7927 24.2744 53.7804 24.1579 53.7681 24.0414L45.6424 33.6521Z" fill="#1C63B8"/>
</g>
</g>
</g>
</g>
<defs>
<clipPath id="clip0_0_1">
<rect width="1440" height="5645" fill="white" transform="translate(-210 -1555)"/>
</clipPath>
</defs>
</svg>
