<svg width="60" height="60" viewBox="0 0 60 60" fill="none" xmlns="http://www.w3.org/2000/svg">
<g id="gearbox_a6t1kw58q3bj 1">
<g id="Group">
<g id="Group_2">
<path id="Vector" d="M39 48C39.5527 48 40 47.5527 40 47V40C40 39.4473 39.5527 39 39 39H33V35H36C36.5527 35 37 34.5528 37 34V28C37 27.4473 36.5527 27 36 27H32V29H35V33H32C31.4473 33 31 33.4472 31 34V40C31 40.5527 31.4473 41 32 41H38V46H33C32.4473 46 32 46.4473 32 47V54C32 54.5527 32.4473 55 33 55H38V58H12V29H16V27H11C10.4473 27 10 27.4473 10 28V59C10 59.5527 10.4473 60 11 60H39C39.5527 60 40 59.5527 40 59V54C40 53.4473 39.5527 53 39 53H34V48H39Z" fill="#1C63B8"/>
</g>
</g>
<g id="Group_3">
<g id="Group_4">
<path id="Vector_2" d="M49 26H43C42.4473 26 42 26.4473 42 27V59C42 59.5527 42.4473 60 43 60H49C49.5528 60 50 59.5527 50 59V27C50 26.4473 49.5528 26 49 26ZM48 58H44V28H48V58Z" fill="#1C63B8"/>
</g>
</g>
<g id="Group_5">
<g id="Group_6">
<path id="Vector_3" d="M47 30H45V32H47V30Z" fill="#1C63B8"/>
</g>
</g>
<g id="Group_7">
<g id="Group_8">
<path id="Vector_4" d="M47 42H45V44H47V42Z" fill="#1C63B8"/>
</g>
</g>
<g id="Group_9">
<g id="Group_10">
<path id="Vector_5" d="M47 36H45V38H47V36Z" fill="#1C63B8"/>
</g>
</g>
<g id="Group_11">
<g id="Group_12">
<path id="Vector_6" d="M47 48H45V50H47V48Z" fill="#1C63B8"/>
</g>
</g>
<g id="Group_13">
<g id="Group_14">
<path id="Vector_7" d="M47 54H45V56H47V54Z" fill="#1C63B8"/>
</g>
</g>
<g id="Group_15">
<g id="Group_16">
<path id="Vector_8" d="M48 21H30V19.9492C30 19.1601 30.4659 18.4424 31.1875 18.1221L36.625 15.7061C38.0674 15.0645 39 13.63 39 12.0509V11H40C41.6543 11 43 9.65425 43 8V6C43 4.34575 41.6543 3 40 3H38.858C38.411 1.2795 36.8587 0 35 0H13C10.794 0 9 1.794 9 4V12.0507C9 13.6299 9.93262 15.0644 11.375 15.706L16.8125 18.122C17.5341 18.4424 18 19.1601 18 19.9491V21H12C8.14062 21 5 24.1406 5 28V60H7V28C7 25.2431 9.24312 23 12 23H18V41C18 43.206 19.794 45 22 45H26C28.206 45 30 43.206 30 41V23H48C50.7569 23 53 25.2431 53 28V60H55V28C55 24.1406 51.8594 21 48 21ZM39 5H40C40.5518 5 41 5.44825 41 6V8C41 8.55175 40.5518 9 40 9H39V5ZM28 19.9492V41C28 42.1025 27.1025 43 26 43H22C20.8975 43 20 42.1025 20 41V19.9492C20 18.3701 19.0674 16.9356 17.625 16.294L12.1875 13.878C11.4659 13.5576 11 12.8399 11 12.0509V4C11 2.8975 11.8975 2 13 2H35C36.1025 2 37 2.8975 37 4V12.0507C37 12.8399 36.5341 13.5576 35.8125 13.8779L30.375 16.294C28.9326 16.9355 28 18.3701 28 19.9492Z" fill="#1C63B8"/>
</g>
</g>
</g>
</svg>
