<svg width="60" height="60" viewBox="0 0 60 60" fill="none" xmlns="http://www.w3.org/2000/svg">
<path d="M15.2266 16.5056L12.4965 19.4702C12.1372 19.8583 11.9412 20.3698 11.9495 20.8983C11.9692 22.3708 12.0351 25.2485 12.2434 27.7944L13.5416 24.1444C14.1957 22.3173 15.8185 21.0104 17.7434 20.7597C17.7187 20.217 17.9146 19.6871 18.2867 19.2913L24.0157 14.1336L28.0843 10.2291C29.247 9.04946 29.2781 7.16517 28.1548 5.94803L28.2198 5.86429C28.1909 5.83867 28.1639 5.81167 28.1392 5.78238L28.0687 5.85285C27.6636 5.45888 27.0181 5.45888 26.613 5.85285L21.5318 10.6093C21.4842 10.6656 21.4302 10.7159 21.3716 10.7603L15.2971 16.4425C15.2747 16.4649 15.2513 16.4859 15.2266 16.5056Z" fill="#1C63B8"/>
<path d="M19.8033 20.7062H22.8909C22.7861 19.8139 22.7536 18.9148 22.793 18.0175L19.8033 20.7062Z" fill="#1C63B8"/>
<path d="M18.8008 5.06255C18.2181 4.48555 17.4312 4.16113 16.6109 4.16113C16.0396 4.16113 15.5763 4.6242 15.5763 5.19525V13.3474L19.7141 9.47631V7.26302C19.7127 6.43802 19.3845 5.64687 18.8008 5.06255Z" fill="#1C63B8"/>
<path d="M39.7275 26.9103C37.5861 25.3385 33.7688 22.2156 32.1858 19.041C30.1996 15.0701 31.6273 12.1545 32.672 10.0345C33.5101 8.33877 33.7894 7.57325 33.2826 6.79812C32.7301 5.791 31.5459 5.31146 30.4481 5.65007C31.5024 7.64829 31.1334 10.0995 29.5377 11.6992L25.1308 15.8974C24.8149 17.4811 24.7627 19.1055 24.9756 20.7061H27.3134C27.957 20.7102 28.5846 20.9083 29.1138 21.2748L34.4723 25.0695C35.224 25.6076 35.6735 26.472 35.6827 27.3963C35.6827 27.9179 35.5394 28.429 35.2689 28.8751C35.2066 28.9785 35.1237 29.082 35.0514 29.1854L36.4687 30.1984C37.6749 31.0733 38.0159 32.7229 37.2551 34.0036C36.5309 35.2171 35.3403 36.0801 33.9615 36.3908C32.5827 36.7015 31.1366 36.4333 29.962 35.6481L27.8929 34.2621C27.7245 34.1505 27.5258 34.0928 27.3239 34.097H24.1379C23.6943 34.0896 23.297 34.3697 23.1551 34.7897C23.0928 35.0071 22.9999 35.2757 22.8859 35.5754C21.7996 38.5743 21.4375 40.7043 23.1757 41.4076C23.6687 41.6437 23.893 42.2226 23.6879 42.7291C23.4824 43.2352 22.9179 43.4946 22.3997 43.3207C18.4584 41.7384 20.1961 36.9303 20.9413 34.8726C21.0342 34.6035 21.1272 34.3656 21.1894 34.1693C21.5964 32.8871 22.7916 32.0191 24.1379 32.0287H27.3239C27.935 32.0264 28.5329 32.2067 29.041 32.5458L31.1101 33.9313C31.8137 34.4035 32.6807 34.5646 33.5069 34.3765C34.3332 34.1889 35.0455 33.6687 35.4758 32.9388C35.6941 32.5851 35.5989 32.1225 35.2583 31.8841L30.4893 28.4615C29.9629 28.0895 29.334 27.8909 28.6894 27.8927H20.5481C19.2348 27.8918 18.0643 28.7214 17.6308 29.9605L13.2033 42.5246C12.8925 43.4077 13.2101 44.3892 13.9792 44.9236L30.7274 56.4014C31.5747 56.9802 32.0819 57.9398 32.0824 58.9661C32.081 59.2388 32.1881 59.5015 32.3799 59.6955C32.5722 59.889 32.8336 59.9988 33.1068 59.9997H48.148C48.4634 60.0007 48.761 59.8556 48.9551 59.6072C49.1515 59.3596 49.2238 59.0356 49.1515 58.7282L47.6413 53.1544C47.0599 50.4973 46.8855 47.7674 47.124 45.0577C47.91 35.1411 41.1031 27.9238 39.7275 26.9103ZM37.234 53.7438C36.6627 53.7438 36.1999 53.2807 36.1999 52.7097C36.1999 49.0802 30.0032 46.2158 27.6237 45.4096C27.1321 45.1959 26.8854 44.6422 27.0547 44.1338C27.2241 43.6259 27.7542 43.3313 28.2756 43.4553C28.6789 43.5893 38.2686 46.8573 38.2686 52.7097C38.2686 53.2807 37.8058 53.7438 37.234 53.7438ZM41.3617 45.4713C37.8241 45.4713 35.1961 43 33.6136 40.9217C33.2982 40.4668 33.3966 39.8445 33.837 39.5096C34.2778 39.1742 34.904 39.2456 35.2583 39.6707C36.562 41.3664 38.6723 43.4036 41.3617 43.4036C41.933 43.4036 42.3962 43.8662 42.3962 44.4377C42.3962 45.0087 41.933 45.4713 41.3617 45.4713Z" fill="#1C63B8"/>
<path d="M11.8172 39.7573L11.9513 39.8483L15.6757 29.2701C16.404 27.2051 18.3545 25.8232 20.5449 25.8196H28.6862C29.7624 25.8187 30.8121 26.1559 31.6864 26.7832L33.3664 27.9848C33.4099 27.9258 33.4575 27.8658 33.4936 27.8059C33.5669 27.6805 33.6049 27.5373 33.6031 27.3922C33.5989 27.1374 33.4726 26.9004 33.2629 26.7553L27.9135 22.9666C27.7382 22.8426 27.5294 22.7753 27.3148 22.774H18.4378C17.119 22.768 15.9393 23.5926 15.4925 24.833L11.0316 37.3802C10.714 38.2587 11.0385 39.2407 11.8172 39.7573Z" fill="#1C63B8"/>
<path d="M35.9711 0.34644L34.985 1.38056C34.7159 1.64549 34.6124 2.0358 34.715 2.39912C34.818 2.76243 35.1105 3.04109 35.479 3.12574C35.847 3.21039 36.232 3.08776 36.4833 2.80544L37.4689 1.77132C37.7385 1.50685 37.842 1.11608 37.7394 0.752766C37.6364 0.389452 37.3439 0.11079 36.9754 0.0265963C36.6074 -0.0580548 36.2224 0.064575 35.9711 0.34644Z" fill="#1C63B8"/>
<path d="M39.592 4.27377L38.2471 4.65218C37.749 4.79174 37.4304 5.27722 37.5009 5.78971C37.5719 6.30173 38.01 6.68289 38.5272 6.68198C38.6224 6.68243 38.7172 6.66916 38.8088 6.64308L40.1537 6.26558C40.7039 6.11047 41.0243 5.53941 40.8696 4.98941C40.7144 4.43941 40.1431 4.11911 39.5929 4.27377H39.592Z" fill="#1C63B8"/>
<path d="M38.7735 11.5638C38.865 11.5899 38.9598 11.6027 39.055 11.6022C39.5718 11.6018 40.009 11.2202 40.0795 10.7086C40.1495 10.1966 39.8309 9.71153 39.3333 9.57243L37.9884 9.19402C37.4382 9.03936 36.8669 9.36012 36.7122 9.91012C36.5579 10.4597 36.8784 11.0312 37.4286 11.1854L38.7735 11.5638Z" fill="#1C63B8"/>
</svg>
