<svg width="50" height="50" viewBox="0 0 50 50" fill="none" xmlns="http://www.w3.org/2000/svg">
<g id="email_n1bfuabbybkk 1" clip-path="url(#clip0_16_99)">
<g id="Group">
<path id="Vector" d="M49.6293 21.023L49.6295 21.0229L43.2449 16.7901V2.64232C43.2449 2.18498 42.8741 1.81421 42.4167 1.81421H7.58215C7.12481 1.81421 6.75404 2.18498 6.75404 2.64232V16.7911L0.37055 21.0229L0.370661 21.0231C0.147403 21.1714 0 21.4249 0 21.7131V47.3579C0 47.8152 0.370771 48.186 0.828107 48.186H49.1719C49.6292 48.186 50 47.8152 50 47.3579V21.7131C50 21.4249 49.8526 21.1714 49.6293 21.023ZM6.75404 23.919L4.15655 22.5412H6.75404V23.919ZM1.65621 23.0897L20.6999 33.1915L1.65621 45.8148V23.0897ZM24.9997 32.3282L46.4241 46.5298H3.57532L24.9997 32.3282ZM29.2998 33.1916L48.3437 23.0897V45.8153L29.2998 33.1916ZM43.2449 22.5412H45.8436L43.2449 23.9196V22.5412ZM46.4241 20.885H43.2449V18.7772L46.4241 20.885ZM41.5886 3.47042V24.7982L27.7287 32.1502L25.4571 30.6445C25.1799 30.4606 24.8194 30.4606 24.5421 30.6445L22.2709 32.15L8.41026 24.7976V3.47042H41.5886ZM6.75404 20.885H3.5761L6.75404 18.7783V20.885Z" fill="#1C63B8"/>
<path id="Vector_2" d="M24.9994 23.5924H31.5971C32.0545 23.5924 32.4252 23.2216 32.4252 22.7643C32.4252 22.307 32.0545 21.9362 31.5971 21.9362H24.9994C21.8181 21.9362 19.2299 19.348 19.2299 16.1666V15.9223C19.2299 12.7409 21.8181 10.1527 24.9994 10.1527C28.1808 10.1527 30.769 12.7409 30.769 15.9223V16.5332C30.769 17.2218 30.2088 17.7822 29.52 17.7822C28.8313 17.7822 28.271 17.2219 28.271 16.5332V15.3725C28.271 13.4001 26.6664 11.7953 24.6939 11.7953C22.7215 11.7953 21.1168 13.3999 21.1168 15.3725C21.1168 17.3449 22.7215 18.9496 24.6939 18.9496C25.5959 18.9496 26.4204 18.6134 27.0502 18.0605C27.5629 18.8868 28.478 19.4383 29.52 19.4383C31.1219 19.4383 32.4252 18.1351 32.4252 16.5331V15.9221C32.4252 11.8275 29.094 8.49634 24.9994 8.49634C20.9048 8.49634 17.5736 11.8275 17.5736 15.9221V16.1665C17.5736 20.2612 20.9048 23.5924 24.9994 23.5924ZM24.6939 17.2934C23.6347 17.2934 22.773 16.4317 22.773 15.3725C22.773 14.3133 23.6348 13.4515 24.6939 13.4515C25.753 13.4515 26.6148 14.3133 26.6148 15.3725C26.6148 16.4317 25.7531 17.2934 24.6939 17.2934Z" fill="#1C63B8"/>
</g>
</g>
<defs>
<clipPath id="clip0_16_99">
<rect width="50" height="50" fill="white"/>
</clipPath>
</defs>
</svg>
