<svg width="50" height="50" viewBox="0 0 50 50" fill="none" xmlns="http://www.w3.org/2000/svg">
<g id="address_1xq8v7w8mvip 1" clip-path="url(#clip0_16_85)">
<g id="Group">
<g id="Group_2">
<path id="Vector" d="M25 0C15.5302 0 7.82605 7.70418 7.82605 17.174C7.82605 26.3829 23.7259 48.7501 24.4027 49.6978C24.6906 50.1008 25.3093 50.1008 25.5972 49.6978C26.274 48.7501 42.1738 26.3829 42.1738 17.174C42.1739 7.70418 34.4698 0 25 0ZM25 47.9931C22.0601 43.7637 9.29392 24.9481 9.29392 17.174C9.29392 8.51366 16.3396 1.46787 25 1.46787C33.6605 1.46787 40.7062 8.51356 40.7062 17.174C40.7062 24.9481 27.94 43.7637 25 47.9931Z" fill="#1C63B8"/>
</g>
</g>
<g id="Group_3">
<g id="Group_4">
<path id="Vector_2" d="M35.3185 7.64901C35.0435 7.35126 34.5791 7.3328 34.2813 7.6078C33.9835 7.8828 33.9651 8.34716 34.2401 8.64491C36.3904 10.9732 37.5745 14.0023 37.5745 17.174C37.5745 24.1077 31.9335 29.7487 24.9998 29.7487C18.0662 29.7487 12.4252 24.1077 12.4252 17.174C12.4252 10.2403 18.0663 4.59922 25 4.59922C27.367 4.59922 29.6728 5.26015 31.6682 6.51064C32.007 6.72304 32.4675 6.61728 32.6798 6.27851C32.8921 5.93964 32.7865 5.47919 32.4476 5.26689C30.2184 3.86982 27.643 3.13135 24.9999 3.13135C17.2569 3.13135 10.9574 9.43085 10.9574 17.1739C10.9574 24.917 17.2569 31.2164 24.9999 31.2164C32.743 31.2164 39.0425 24.917 39.0425 17.1739C39.0426 13.632 37.72 10.2493 35.3185 7.64901Z" fill="#1C63B8"/>
</g>
</g>
<g id="Group_5">
<g id="Group_6">
<path id="Vector_3" d="M32.3755 10.2433C30.6133 8.21123 27.925 7.0459 25.0001 7.0459C19.4153 7.0459 14.8719 11.5894 14.8719 17.1741C14.8719 22.7588 19.4154 27.3023 25.0001 27.3023C25.4055 27.3023 25.7339 26.9737 25.7339 26.5683C25.7339 26.1629 25.4054 25.8344 25.0001 25.8344C20.2247 25.8344 16.3397 21.9494 16.3397 17.1741C16.3397 12.3987 20.2248 8.51377 25.0001 8.51377C27.4993 8.51377 29.7834 9.49472 31.2667 11.2051C32.6463 12.7956 33.2058 14.8238 32.8849 17.0705C32.6111 18.9872 31.4394 20.4687 30.4648 20.7935C30.0514 20.9313 29.7237 20.86 29.4334 20.5695C28.2077 19.3439 28.8956 15.0852 29.617 12.6891C29.734 12.301 29.5144 11.8914 29.1263 11.7744C28.7387 11.6571 28.3288 11.8769 28.2117 12.265C28.1416 12.4976 27.9021 13.321 27.6854 14.4043C27.6268 14.2605 27.5627 14.12 27.4925 13.9835C26.8777 12.7866 25.8997 12.0183 24.7387 11.8204C23.5786 11.6225 22.4007 12.0229 21.4237 12.9485C20.5042 13.8197 19.867 15.0663 19.6295 16.4586C19.392 17.8509 19.5801 19.2383 20.1589 20.3648C20.7737 21.5617 21.7517 22.3299 22.9127 22.5279C23.1066 22.561 23.3009 22.5773 23.4949 22.5773C24.4612 22.5773 25.4139 22.1705 26.2277 21.3998C26.7282 20.9258 27.144 20.3399 27.4583 19.6805C27.6193 20.4495 27.9125 21.1245 28.3953 21.6074C29.0737 22.2857 29.9972 22.4964 30.9289 22.186C32.5764 21.6368 34.0101 19.5727 34.338 17.278C34.7153 14.6358 34.0185 12.1376 32.3755 10.2433ZM26.5749 17.643C26.3905 18.7243 25.9087 19.6801 25.2181 20.3343C24.5849 20.9342 23.8541 21.1993 23.1594 21.081C22.465 20.9626 21.8632 20.47 21.4645 19.6941C21.03 18.848 20.8921 17.7866 21.0765 16.7054C21.2609 15.6241 21.7427 14.6683 22.4333 14.0141C22.8836 13.5875 23.4611 13.2647 24.0922 13.2413C24.6588 13.2202 25.1929 13.4559 25.5977 13.8452C25.8395 14.0778 26.034 14.3566 26.187 14.6544C26.6215 15.5002 26.7593 16.5617 26.5749 17.643Z" fill="#1C63B8"/>
</g>
</g>
</g>
<defs>
<clipPath id="clip0_16_85">
<rect width="50" height="50" fill="white"/>
</clipPath>
</defs>
</svg>
