<svg width="60" height="60" viewBox="0 0 60 60" fill="none" xmlns="http://www.w3.org/2000/svg">
<g id="gas_bottle_yox9ngqx3kkd 1">
<path id="Vector" d="M32.953 4H26.9531C25.8499 4.0032 24.9564 4.89676 24.9532 5.99997V7.99994C24.9564 9.10315 25.8499 9.9967 26.9531 9.99991H32.953C34.0562 9.9967 34.9498 9.10315 34.953 7.99994V5.99997C34.9498 4.89676 34.0562 4.0032 32.953 4ZM32.953 7.99994H26.9531V5.99997H32.953V7.99994Z" fill="#1C63B8"/>
<path id="Vector_2" d="M35.9532 0H23.9529C22.2981 0.00503541 20.9583 1.34537 20.9532 3.00018V12.1802C15.7397 13.1506 11.9577 17.6971 11.9531 22.9999V45C11.9531 48.7212 13.8341 52.1901 16.9533 54.2198V56.0001C16.9533 58.2092 18.744 60 20.9532 60H38.9529C41.1621 60 42.9533 58.2092 42.9533 56.0001V54.2198C46.0721 52.1901 47.9535 48.7212 47.953 45V22.9999C47.9485 17.6971 44.1664 13.1506 38.9529 12.1802V3.00018C38.9484 1.34537 37.608 0.00503541 35.9532 0ZM22.9532 3.00018C22.9532 2.44766 23.4009 1.99997 23.9529 1.99997H35.9532C36.5053 1.99997 36.953 2.44766 36.953 3.00018V11.9998H22.9532V3.00018ZM23.5831 34.2801C23.9438 33.9674 24.4647 33.923 24.873 34.1702C25.2805 34.4339 25.4544 34.942 25.2933 35.3998C25.1331 35.7344 25.1079 36.1176 25.2232 36.47C25.2832 36.5602 25.5029 36.66 25.9529 36.66C26.2633 36.66 26.553 36.66 26.553 35.76C26.4381 35.1778 26.1955 34.628 25.843 34.1501C25.079 33.0597 24.6323 31.7789 24.5531 30.45C24.5531 27.7002 26.2331 23.4398 29.8329 23.0099C30.3392 22.9459 30.824 23.2347 31.0085 23.7103C31.1929 24.1859 31.03 24.7261 30.6129 25.02C30.1483 25.2855 29.8311 25.7501 29.7533 26.2802C29.7533 27.7798 31.3033 29.03 33.1032 30.4802C35.7133 32.5699 38.9529 35.1801 38.9529 39.9298C38.9529 44.36 35.593 47 29.9533 47C24.3132 47 20.9532 44.36 20.9532 39.9298C21.0466 37.7728 21.9928 35.7404 23.5831 34.2801ZM38.9932 55.8101C39.153 55.7799 39.3233 55.7401 39.4931 55.7002C39.6629 55.6599 39.8232 55.6201 39.9829 55.5702C40.1495 55.5304 40.3134 55.4805 40.4732 55.4201C40.6329 55.3702 40.7932 55.3102 40.9529 55.2498V56.0001C40.9497 57.1033 40.0562 57.9968 38.9529 58H20.9532C19.85 57.9968 18.9565 57.1033 18.9532 56.0001V55.2498C19.113 55.3102 19.2732 55.3702 19.433 55.4201C19.5932 55.4805 19.7566 55.5304 19.9232 55.5702C20.083 55.6201 20.2533 55.6599 20.4131 55.7002C20.5733 55.7401 20.7532 55.7799 20.9129 55.8101C21.5854 55.9383 22.2688 56.0019 22.9532 56.0001H36.953C37.6378 56.0019 38.3208 55.9383 38.9932 55.8101Z" fill="#1C63B8"/>
<path id="Vector_3" d="M29.9533 45C32.563 45 36.953 44.3399 36.953 39.9298C36.953 36.14 34.3629 34.0498 31.853 32.0398C29.8329 30.4101 27.9131 28.8698 27.7629 26.5699C27.0007 27.7226 26.581 29.068 26.553 30.45C26.6414 31.4181 26.9907 32.3442 27.5633 33.1302C28.125 33.901 28.4669 34.8102 28.553 35.76C28.6542 36.503 28.4244 37.2528 27.9236 37.8112C27.4232 38.3693 26.7027 38.6796 25.9529 38.6599C25.0447 38.7391 24.1576 38.356 23.5931 37.64C23.5822 37.6213 23.5689 37.6048 23.5533 37.5901C23.172 38.312 22.9665 39.1136 22.9532 39.9298C22.9532 44.3399 27.3431 45 29.9533 45Z" fill="#1C63B8"/>
</g>
</svg>
