<svg width="60" height="60" viewBox="0 0 60 60" fill="none" xmlns="http://www.w3.org/2000/svg">
<g id="power_2o0taiyzo8cg 1" clip-path="url(#clip0_12_89)">
<path id="Vector" d="M18.0199 27.2854C17.8212 28.162 17.6953 29.0643 17.6953 29.9999C17.6953 31.9761 18.2076 33.8181 19.0388 35.4743C21.5648 35.8955 24.1351 35.1054 25.985 33.3782C25.5981 32.9191 25.2859 32.4018 25.0726 31.8292C22.2153 31.2354 19.7173 29.5925 18.0199 27.2854Z" fill="#1C63B8"/>
<path id="Vector_2" d="M30.8551 35.1869C30.2266 35.2903 29.8201 35.3187 29.0483 35.1772C27.1042 37.337 24.472 38.6604 21.638 38.9726C23.6494 40.848 26.2811 42.03 29.193 42.2231C30.8327 40.2479 31.4259 37.6602 30.8551 35.1869Z" fill="#1C63B8"/>
<path id="Vector_3" d="M19.796 23.1331C20.6763 25.5684 22.635 27.3972 25.08 28.147C25.2873 27.5981 25.5872 27.1019 25.9552 26.6574C25.0415 23.899 25.2058 20.9299 26.3374 18.3147C23.6531 19.1597 21.3396 20.847 19.796 23.1331Z" fill="#1C63B8"/>
<path id="Vector_4" d="M41.9801 32.7154C42.1788 31.8388 42.3047 30.9357 42.3047 30C42.3047 28.0238 41.7924 26.1813 40.9607 24.5242C38.4338 24.1008 35.8635 24.8918 34.0141 26.6208C34.4014 27.0799 34.7136 27.5976 34.9274 28.1708C37.7847 28.7645 40.2823 30.4079 41.9801 32.7154Z" fill="#1C63B8"/>
<path id="Vector_5" d="M40.204 36.8669C39.3237 34.4321 37.3645 32.6033 34.92 31.853C34.7127 32.4019 34.4124 32.8981 34.0448 33.3426C34.9585 36.1011 34.7942 39.0701 33.6626 41.6853C36.3464 40.8403 38.6604 39.153 40.204 36.8669Z" fill="#1C63B8"/>
<path id="Vector_6" d="M31.7578 30C31.7578 29.03 30.97 28.2422 30 28.2422C29.03 28.2422 28.2422 29.03 28.2422 30C28.2422 30.97 29.03 31.7578 30 31.7578C30.97 31.7578 31.7578 30.97 31.7578 30Z" fill="#1C63B8"/>
<path id="Vector_7" d="M30.7251 17.7686C29.1023 19.7406 28.5599 22.3531 29.128 24.8149C29.8141 24.6996 30.168 24.6945 30.8812 24.8154C32.818 22.646 35.4753 21.3071 38.3093 20.9843C36.2856 19.1176 33.6461 17.943 30.7251 17.7686Z" fill="#1C63B8"/>
<path id="Vector_8" d="M14.1797 55.3051C9.75769 52.5311 6.10153 48.6529 3.63281 44.0327V56.4843H0V60H17.6953V56.4843H14.1797V55.3051Z" fill="#1C63B8"/>
<path id="Vector_9" d="M56.4844 0V3.63281H30C15.4605 3.63281 3.63281 15.4605 3.63281 30C3.63281 44.5395 15.4605 56.3672 30 56.3672C44.5395 56.3672 56.3672 44.5395 56.3672 30C56.3672 25.6581 55.2754 21.4742 53.2709 17.6953H39.8209C43.4477 20.5971 45.8203 25.0044 45.8203 30C45.8203 38.7236 38.7236 45.8203 30 45.8203C21.2764 45.8203 14.1797 38.7236 14.1797 30C14.1797 21.5533 20.8493 14.6928 29.1902 14.2616L29.2722 14.1797H56.4844V17.6953H60V0H56.4844Z" fill="#1C63B8"/>
<path id="Vector_10" d="M14.2873 4.62936C13.2266 3.99536 11.987 3.63281 10.6641 3.63281C6.78635 3.63281 3.63281 6.78635 3.63281 10.6641C3.63281 11.987 3.99536 13.2266 4.62936 14.2873C7.06421 10.3706 10.3706 7.06421 14.2873 4.62936Z" fill="#1C63B8"/>
<path id="Vector_11" d="M45.7127 55.3707C46.7734 56.0047 48.013 56.3672 49.3359 56.3672C53.2137 56.3672 56.3672 53.2137 56.3672 49.336C56.3672 48.013 56.0046 46.7734 55.3706 45.7128C52.9358 49.6294 49.6294 52.9358 45.7127 55.3707Z" fill="#1C63B8"/>
</g>
<defs>
<clipPath id="clip0_12_89">
<rect width="60" height="60" fill="white"/>
</clipPath>
</defs>
</svg>
