<svg width="60" height="60" viewBox="0 0 60 60" fill="none" xmlns="http://www.w3.org/2000/svg">
<path id="Vector" d="M59.1846 8.39731C59.064 7.62371 58.4406 6.98737 57.5979 6.77821L30.5886 0.0717652C30.2035 -0.0239217 29.7968 -0.0239217 29.4114 0.0717652L2.40213 6.77821C1.55941 6.98737 0.936002 7.62345 0.815362 8.39731C0.658706 9.40307 -2.91511 33.1669 6.25148 44.9887C15.4072 56.7963 28.9139 59.8222 29.4844 59.9454C29.6539 59.982 29.8267 60 30 60C30.1733 60 30.3461 59.9817 30.5156 59.9454C31.0863 59.8222 44.593 56.7963 53.7485 44.9887C62.9151 33.1671 59.3413 9.40333 59.1846 8.39731ZM47.4175 22.2709L28.9945 38.7199C28.5658 39.1026 28.0036 39.2942 27.4417 39.2942C26.8798 39.2942 26.3176 39.1029 25.8889 38.7199L14.498 28.5496C14.0861 28.182 13.8547 27.6832 13.8547 27.1632C13.8547 26.6432 14.0864 26.1444 14.498 25.7768L16.7598 23.7574C17.6174 22.9919 19.008 22.9917 19.8654 23.7574L27.4417 30.5219L42.0502 17.4784C42.4619 17.1106 43.0206 16.904 43.603 16.904C44.1854 16.904 44.7441 17.1106 45.1558 17.4784L47.4175 19.4978C48.2752 20.2635 48.2752 21.5051 47.4175 22.2709Z" fill="#1C63B8"/>
</svg>
